<?xml version="1.0" encoding="iso-8859-1"?>
<!-- Generator: Adobe Illustrator 19.0.0, SVG Export Plug-In . SVG Version: 6.00 Build 0)  -->
<svg version="1.1" id="Layer_1" xmlns="http://www.w3.org/2000/svg" xmlns:xlink="http://www.w3.org/1999/xlink" x="0px" y="0px"
	 viewBox="0 0 512.883 512.883" style="enable-background:new 0 0 512.883 512.883;" xml:space="preserve">
<path style="fill:#546A79;" d="M512,106.372H0V17.214C0,7.503,7.062,0.441,16.772,0.441H496.11c8.828,0,16.772,7.062,16.772,16.772
	v89.159H512z"/>
<path style="fill:#ED7161;" d="M79.448,53.407c0,15.007-11.476,26.483-26.483,26.483S26.483,68.414,26.483,53.407
	s11.476-26.483,26.483-26.483S79.448,38.4,79.448,53.407"/>
<path style="fill:#ECBA16;" d="M158.897,53.407c0,15.007-11.476,26.483-26.483,26.483c-15.007,0-26.483-11.476-26.483-26.483
	s11.476-26.483,26.483-26.483C147.421,26.924,158.897,38.4,158.897,53.407"/>
<path style="fill:#42B05C;" d="M238.345,53.407c0,15.007-11.476,26.483-26.483,26.483c-15.007,0-26.483-11.476-26.483-26.483
	s11.476-26.483,26.483-26.483C226.869,26.924,238.345,38.4,238.345,53.407"/>
<path style="fill:#E8EDEE;" d="M0,106.372v386.648c0,10.593,8.828,19.421,19.421,19.421h104.166h264.828h104.166
	c10.593,0,19.421-8.828,19.421-19.421V106.372H0z"/>
<g>
	<path style="fill:#ECBA16;" d="M203.034,388.855c-1.766,0-2.648,0-4.414-0.883L83.862,326.179
		c-4.414-2.648-5.297-7.945-3.531-12.359c2.648-4.414,7.945-6.179,12.359-3.531l114.759,61.793
		c4.414,2.648,6.179,7.945,3.531,12.359C209.214,387.09,206.566,388.855,203.034,388.855"/>
	<path style="fill:#ECBA16;" d="M238.345,380.028c-0.883,0-1.766,0-3.531-0.883c-4.414-1.766-7.062-7.062-5.297-11.476
		l52.966-132.414c1.766-4.414,7.062-7.062,11.476-5.297c4.414,1.766,7.062,7.062,5.297,11.476L246.29,373.848
		C245.407,378.262,241.876,380.028,238.345,380.028"/>
	<path style="fill:#ECBA16;" d="M414.897,300.579c-1.766,0-3.531-0.883-5.297-1.766l-88.276-61.793
		c-4.414-2.648-5.297-7.945-1.766-12.359c2.648-4.414,7.945-5.297,12.359-1.766l88.276,61.793c4.414,2.648,5.297,7.945,1.766,12.359
		C420.193,299.697,417.545,300.579,414.897,300.579"/>
</g>
<g>
	<path style="fill:#42B05C;" d="M114.759,309.407c0,19.421-15.89,35.31-35.31,35.31s-35.31-15.89-35.31-35.31
		c0-19.421,15.89-35.31,35.31-35.31S114.759,289.986,114.759,309.407"/>
	<path style="fill:#42B05C;" d="M467.862,309.407c0,19.421-15.89,35.31-35.31,35.31c-19.421,0-35.31-15.89-35.31-35.31
		c0-19.421,15.89-35.31,35.31-35.31C451.972,274.097,467.862,289.986,467.862,309.407"/>
	<path style="fill:#42B05C;" d="M344.276,221.131c0,19.421-15.89,35.31-35.31,35.31s-35.31-15.89-35.31-35.31
		s15.89-35.31,35.31-35.31S344.276,201.71,344.276,221.131"/>
	<path style="fill:#42B05C;" d="M264.828,388.855c0,19.421-15.89,35.31-35.31,35.31s-35.31-15.89-35.31-35.31
		c0-19.421,15.89-35.31,35.31-35.31S264.828,369.434,264.828,388.855"/>
</g>
<g>
</g>
<g>
</g>
<g>
</g>
<g>
</g>
<g>
</g>
<g>
</g>
<g>
</g>
<g>
</g>
<g>
</g>
<g>
</g>
<g>
</g>
<g>
</g>
<g>
</g>
<g>
</g>
<g>
</g>
</svg>
